<svg width="30" height="30" viewBox="0 0 30 30" fill="none" xmlns="http://www.w3.org/2000/svg">
<path d="M15 23.3333C18.0743 23.3333 19.6114 23.3333 20.701 22.6551C21.1041 22.4042 21.4548 22.0925 21.7371 21.7342C22.5 20.7656 22.5 19.3993 22.5 16.6666V13.3333C22.5 10.6006 22.5 9.23425 21.7371 8.26567C21.4548 7.90733 21.1041 7.59567 20.701 7.34475C19.6114 6.66659 18.0743 6.66658 15 6.66658C11.9258 6.66658 10.3886 6.66659 9.299 7.34475C8.89583 7.59567 8.54525 7.90733 8.26292 8.26567C7.5 9.23425 7.5 10.6006 7.5 13.3333V16.6666C7.5 19.3993 7.5 20.7656 8.26292 21.7342C8.54525 22.0925 8.89583 22.4042 9.299 22.6551C10.3886 23.3333 11.9258 23.3333 15 23.3333Z" stroke="#AEB9E1" stroke-width="1.46875"/>
<path d="M22.5 17.0833H7.5" stroke="#AEB9E1" stroke-width="1.46875" stroke-linejoin="round"/>
<path d="M19.1666 20.8333V19.9999M16.6666 20.8333V19.9999" stroke="#AEB9E1" stroke-width="1.46875" stroke-linecap="round" stroke-linejoin="round"/>
</svg>
