<svg width="20" height="20" viewBox="0 0 20 20" fill="none" xmlns="http://www.w3.org/2000/svg">
<path d="M18.3333 10C18.3333 6.92572 18.3333 5.38858 17.6552 4.29898C17.4043 3.89585 17.0926 3.54522 16.7343 3.26295C15.7657 2.5 14.3994 2.5 11.6667 2.5H8.33334C5.60068 2.5 4.23434 2.5 3.26576 3.26295C2.90743 3.54522 2.59576 3.89585 2.34484 4.29898C1.66668 5.38858 1.66668 6.92572 1.66668 10C1.66668 13.0742 1.66668 14.6114 2.34484 15.701C2.59576 16.1042 2.90743 16.4547 3.26576 16.7371C4.23434 17.5 5.60068 17.5 8.33334 17.5H11.6667C14.3994 17.5 15.7657 17.5 16.7343 16.7371C17.0926 16.4547 17.4043 16.1042 17.6552 15.701C18.3333 14.6114 18.3333 13.0742 18.3333 10Z" stroke="#AEB9E1" stroke-width="1.46875"/>
<path d="M12.0833 2.5V17.5" stroke="#AEB9E1" stroke-width="1.46875" stroke-linejoin="round"/>
<path d="M15.8333 5.83325H15M15.8333 8.33325H15" stroke="#AEB9E1" stroke-width="1.46875" stroke-linecap="round" stroke-linejoin="round"/>
</svg>
