<svg width="30" height="30" viewBox="0 0 30 30" fill="none" xmlns="http://www.w3.org/2000/svg">
<path d="M19.875 14.9995C19.875 12.3111 17.6879 10.1245 15 10.1245C12.3121 10.1245 10.125 12.3111 10.125 14.9995C10.125 17.6879 12.3121 19.8745 15 19.8745C17.6879 19.8745 19.875 17.6879 19.875 14.9995ZM15 17.9245C13.3871 17.9245 12.075 16.6125 12.075 14.9995C12.075 13.3866 13.3871 12.0745 15 12.0745C16.6129 12.0745 17.925 13.3866 17.925 14.9995C17.925 16.6125 16.6129 17.9245 15 17.9245ZM15.975 7.2V6.225C15.975 5.68656 15.5384 5.25 15 5.25C14.4616 5.25 14.025 5.68656 14.025 6.225V7.2C14.025 7.73797 14.4616 8.175 15 8.175C15.5384 8.175 15.975 7.73797 15.975 7.2ZM21.8945 8.10549C21.5137 7.72463 20.8957 7.72463 20.5158 8.10549L19.8264 8.79484C19.4456 9.1757 19.4456 9.79317 19.8264 10.1736C20.0164 10.364 20.2663 10.4592 20.5158 10.4592C20.7653 10.4592 21.0147 10.364 21.2052 10.1736L21.8945 9.4842C22.2754 9.10382 22.2754 8.48636 21.8945 8.10549ZM23.775 14.025H22.8C22.262 14.025 21.825 14.4616 21.825 15C21.825 15.5384 22.262 15.975 22.8 15.975H23.775C24.3134 15.975 24.75 15.5384 24.75 15C24.75 14.4616 24.3134 14.025 23.775 14.025ZM20.5158 21.8945C20.7057 22.0849 20.9557 22.1802 21.2051 22.1802C21.4546 22.1802 21.7041 22.0849 21.8945 21.8945C22.2754 21.5137 22.2754 20.8962 21.8945 20.5158L21.2051 19.8264C20.8243 19.4456 20.2063 19.4456 19.8264 19.8264C19.4456 20.2068 19.4456 20.8243 19.8264 21.2052L20.5158 21.8945ZM14.025 22.8V23.775C14.025 24.3134 14.4616 24.75 15 24.75C15.5384 24.75 15.975 24.3134 15.975 23.775V22.8C15.975 22.262 15.5384 21.825 15 21.825C14.4616 21.825 14.025 22.262 14.025 22.8ZM8.10549 21.8945C8.29592 22.0849 8.54538 22.1802 8.79484 22.1802C9.04431 22.1802 9.29425 22.0849 9.4842 21.8945L10.1736 21.2052C10.5544 20.8243 10.5544 20.2068 10.1736 19.8264C9.79365 19.4456 9.1757 19.4456 8.79484 19.8264L8.10549 20.5158C7.72463 20.8962 7.72463 21.5136 8.10549 21.8945ZM5.25 15C5.25 15.5384 5.68656 15.975 6.225 15.975H7.2C7.73797 15.975 8.175 15.5384 8.175 15C8.175 14.4616 7.73797 14.025 7.2 14.025H6.225C5.68656 14.025 5.25 14.4616 5.25 15ZM10.1736 10.1736C10.5544 9.79318 10.5544 9.17571 10.1736 8.79485L9.48421 8.1055C9.1043 7.72464 8.48636 7.72464 8.1055 8.1055C7.72464 8.48636 7.72464 9.10382 8.1055 9.48421L8.79485 10.1736C8.98528 10.364 9.23474 10.4592 9.48421 10.4592C9.73367 10.4592 9.9836 10.364 10.1736 10.1736Z" fill="#AEB9E1"/>
</svg>
