<?xml version="1.0" encoding="UTF-8" standalone="no" ?>
<!DOCTYPE svg PUBLIC "-//W3C//DTD SVG 1.1//EN" "http://www.w3.org/Graphics/SVG/1.1/DTD/svg11.dtd">
<svg xmlns="http://www.w3.org/2000/svg" xmlns:xlink="http://www.w3.org/1999/xlink" version="1.1" width="1280" height="1024" viewBox="0 0 1280 1024" xml:space="preserve">
<desc>Created with Fabric.js 5.3.0</desc>
<defs>
</defs>
<g transform="matrix(1 0 0 1 640 512)" id="background-logo"  >
<rect style="stroke: none; stroke-width: 0; stroke-dasharray: none; stroke-linecap: butt; stroke-dashoffset: 0; stroke-linejoin: miter; stroke-miterlimit: 4; fill: rgb(255,255,255); fill-opacity: 0; fill-rule: nonzero; opacity: 1;"  paint-order="stroke"  x="-640" y="-512" rx="0" ry="0" width="1280" height="1024" />
</g>
<g transform="matrix(4.409608640845863 0 0 4.409608640845863 639.575765692782 483.59323765322904)" id="logo-logo"  >
<g style=""  paint-order="stroke"   >
		<g transform="matrix(-0.14168509533335535 0 0 0.14168509533335533 -0.33628603433743365 0)"  >
<path style="stroke: rgb(68,86,52); stroke-width: 1; stroke-dasharray: none; stroke-linecap: butt; stroke-dashoffset: 0; stroke-linejoin: miter; stroke-miterlimit: 4; fill: rgb(0,0,0); fill-rule: nonzero; opacity: 1;"  paint-order="stroke"  transform=" translate(-1023.4867588947095, -970.8556833164547)" d="M 899 368 C 898.481 372.043 896.575 373.637 893.562 376.25 L 890.801 378.652 C 887.494 381.424 884.133 384.116 880.7460000000001 386.789 C 875.6790000000001 390.86899999999997 870.777 395.142 865.8570000000001 399.397 C 864.0073774683491 400.9916527081135 862.1540390966135 402.5819903648671 860.297 404.16799999999995 C 847.7330000000002 414.93600000000004 835.7240000000002 426.198 824.0000000000001 437.875 L 821.6080000000001 440.252 C 817.4090000000001 444.463 813.3760000000001 448.759 809.4970000000001 453.267 C 807.676 455.375 805.7760000000001 457.402 803.8750000000001 459.438 C 786.138 479.185 771.342 501.567 761 526 L 762.949 525.025 L 765.688 523.656 L 768.717 522.141 L 775.357 518.824 C 782.2389999999999 515.3879999999999 782.2389999999999 515.3879999999999 789.102 511.91399999999993 C 858.8629999999999 476.49199999999996 932.054 455.55299999999994 1009.75 446.8119999999999 L 1012.03 446.5549999999999 C 1030.949 444.4369999999999 1049.653 443.7589999999999 1068.6879999999999 443.7499999999999 L 1072.485 443.7479999999999 C 1117.193 443.7859999999999 1161.245 447.62399999999985 1205 456.9999999999999 L 1206.962 457.41699999999986 C 1260.908 468.8799999999999 1312.162 487.57299999999987 1362 510.9999999999999 L 1365.007 512.4139999999999 C 1379.144 519.1219999999998 1392.582 526.9669999999999 1406 534.9999999999999 L 1408.558 536.5209999999998 C 1418.6093701689476 542.5003279914471 1428.4285367980367 548.861637531355 1437.9939999999997 555.5909999999999 C 1440.0386212864407 557.0245325637745 1442.0889710368579 558.4498773097968 1444.1450000000002 559.8670000000001 C 1458.3107278086452 569.6904053810316 1471.9589545550316 580.2398271111927 1485.0349999999999 591.4729999999997 C 1487.942 593.9509999999998 1490.8990000000001 596.3549999999998 1493.875 598.7499999999999 C 1497.549 601.7379999999999 1500.956 604.8219999999999 1504.234 608.2349999999999 C 1505.9209999999998 609.9209999999999 1507.664 611.4559999999999 1509.484 612.9959999999999 C 1514.562 617.4099999999999 1519.301 622.1509999999998 1524.0459999999998 626.9149999999998 Q 1526.3179999999998 629.1929999999999 1528.6 631.4629999999999 C 1533.3829999999998 636.2429999999998 1538.0559999999998 641.0729999999999 1542.455 646.2139999999998 C 1544.461 648.5319999999998 1546.5649999999998 650.7459999999999 1548.677 652.9679999999998 C 1555.625 660.2899999999998 1561.932 667.9409999999998 1568 675.9999999999999 L 1569.58 678.0799999999999 C 1591.56 707.0719999999999 1611.047 738.0899999999999 1626.946 770.8349999999999 C 1627.6779153777534 772.3378303969731 1628.4142518997246 773.8385035621671 1629.1550000000002 775.3369999999998 C 1658.262 834.231 1674.142 898.878 1681 964 L 1681.412 967.88 C 1683.799 990.968 1684.4170000000001 1013.833 1684.2640000000001 1037.034 C 1684.2473332860056 1040.5279755769673 1684.238666596621 1044.0219847356602 1684.2379999999998 1047.5160000000012 Q 1684.228 1053.903 1684.203 1060.289 L 1684.197 1062.642 C 1684.167 1072.191 1683.875 1081.684 1683.2489999999998 1091.214 C 1682.8689999999997 1096.9959999999999 1682.5889999999997 1102.77 1682.4379999999999 1108.562 L 1682.2479999999998 1111.885 C 1682.0949999999998 1117.984 1682.0949999999998 1117.984 1684.6689999999999 1123.343 C 1686.7019999999998 1125.3400000000001 1688.8249999999998 1127.161 1690.9999999999998 1129 C 1703.2699999999998 1144.806 1704.3739999999998 1161.069 1704.3709999999999 1180.433 C 1704.3749999999998 1182.866 1704.4109999999998 1185.298 1704.4489999999998 1187.73 C 1704.5859999999998 1206.736 1700.754 1224.771 1687.2299999999998 1239 C 1680.7109999999998 1244.846 1673.4609999999998 1248.832 1664.9999999999998 1251 L 1661.3479999999997 1252.005 C 1657.2699999999998 1253.0210000000002 1653.2619999999997 1253.3780000000002 1649.0699999999997 1253.527 L 1644.6639999999998 1253.74 Q 1641.2369999999999 1253.894 1637.8109999999997 1254.029 C 1635.5839999999996 1254.12 1633.3589999999997 1254.229 1631.1329999999996 1254.34 L 1629.0529999999997 1254.406 C 1626.9189999999996 1254.485 1626.9189999999996 1254.485 1623.9999999999995 1255 C 1618.7629999999995 1262.855 1620.8489999999995 1275.455 1620.8419999999996 1284.663 L 1620.8269999999995 1289.315 Q 1620.8099999999995 1294.295 1620.8009999999995 1299.277 Q 1620.7829999999994 1307.188 1620.7479999999994 1315.101 C 1620.6859999999995 1330.095 1620.6319999999994 1345.0890000000002 1620.5989999999995 1360.083 Q 1620.5709999999995 1372.526 1620.5109999999995 1384.969 C 1620.4899999999996 1389.342 1620.4739999999995 1393.7150000000001 1620.4719999999995 1398.088 C 1620.4369999999994 1448.706 1611.7129999999995 1492.19 1575.9999999999995 1530 L 1573.7069999999997 1532.488 C 1550.0509999999997 1557.3020000000001 1514.1329999999996 1570.94 1480.2069999999997 1572.095 C 1477.1279999999997 1572.134 1474.0509999999997 1572.143 1470.9719999999998 1572.14 L 1467.4159999999997 1572.1490000000001 Q 1462.5709999999997 1572.159 1457.7259999999997 1572.16 Q 1452.4839999999997 1572.164 1447.2419999999997 1572.1760000000002 Q 1435.7999999999997 1572.1960000000001 1424.3569999999997 1572.2 L 1410.0459999999998 1572.212 Q 1390.2009999999998 1572.231 1370.3559999999998 1572.238 L 1367.7949999999998 1572.238 L 1365.2269999999999 1572.239 L 1360.078 1572.24 L 1357.498 1572.241 Q 1336.815 1572.248 1316.133 1572.286 Q 1294.857 1572.3210000000001 1273.58 1572.323 Q 1261.6519999999998 1572.323 1249.722 1572.3480000000002 Q 1239.564 1572.371 1229.404 1572.3600000000001 C 1225.955 1572.3560000000002 1222.506 1572.3570000000002 1219.057 1572.371 C 1179.618 1572.506 1147.205 1560.851 1118 1534 L 1115.961 1532.176 C 1106.286 1523.0739999999998 1098.457 1511.5059999999999 1092 1500 L 1090.997 1498.214 C 1075.256 1469.73 1071.353 1437.973 1069 1406 L 1068.805 1403.359 C 1065.601 1359.79 1065.601 1359.79 1065.554 1342.6589999999999 C 1065.4450000000002 1336.647 1064.7430000000002 1331.8519999999999 1061 1326.9999999999998 C 1054.065 1322.4319999999998 1047.891 1322.4139999999998 1039.742 1322.4689999999998 L 1035.918 1322.4569999999999 Q 1031.9319999999998 1322.4519999999998 1027.946 1322.4789999999998 C 1024.552 1322.5009999999997 1021.1589999999999 1322.4879999999998 1017.7649999999999 1322.4639999999997 C 1014.5069999999998 1322.4459999999997 1011.2499999999999 1322.4589999999996 1007.9919999999998 1322.4689999999998 L 1004.3179999999999 1322.4439999999997 C 997.9229999999999 1322.5149999999996 993.8399999999999 1322.6499999999996 988.9999999999999 1326.9999999999998 L 987.1719999999999 1328.6409999999998 L 985.7499999999999 1330.2499999999998 L 984.2969999999999 1331.8279999999997 C 980.1519999999999 1338.7689999999998 980.271 1347.9559999999997 979.5619999999999 1355.7889999999998 L 979.1819999999999 1359.8339999999998 Q 978.6819999999999 1365.1519999999998 978.1979999999999 1370.4709999999998 C 977.872020634352 1374.0016141815793 977.5430205139286 1377.5319488071232 977.2110000000007 1381.0619999999997 C 976.2639999999999 1391.1939999999997 975.3169999999999 1401.3259999999996 974.4329999999999 1411.4629999999997 C 973.5899999999999 1421.1059999999998 972.6649999999998 1430.6869999999997 971.1249999999999 1440.2499999999998 L 970.6009999999999 1443.5469999999998 C 964.2949999999998 1482.2879999999998 948.8309999999999 1519.8779999999997 916.7699999999999 1544.5779999999997 C 913.5769999999999 1546.8469999999998 910.3379999999999 1548.9519999999998 906.9999999999999 1550.9999999999998 L 905.1659999999999 1552.1349999999998 C 877.204 1569.2539999999997 846.7959999999999 1573.9629999999997 814.452 1573.7129999999997 Q 810.396 1573.7149999999997 806.3389999999999 1573.7249999999997 C 799.8439999999999 1573.7359999999996 793.3489999999999 1573.7159999999997 786.8539999999999 1573.6849999999997 C 779.2583726837896 1573.6546677696194 771.6626869955477 1573.6413344028967 764.0669999999983 1573.6450000000007 C 750.5039999999999 1573.6419999999998 736.9409999999999 1573.6109999999996 723.3779999999999 1573.5619999999997 Q 703.718 1573.4919999999997 684.0569999999999 1573.4799999999996 L 681.6049999999999 1573.4789999999996 L 676.7119999999999 1573.4759999999997 L 674.2729999999999 1573.4749999999997 L 671.8389999999999 1573.4739999999997 C 659.262 1573.4659999999997 646.685 1573.4439999999997 634.108 1573.4189999999996 Q 627.3159999999999 1573.4049999999997 620.5219999999999 1573.3979999999997 Q 609.7549999999999 1573.3859999999997 598.9889999999999 1573.3439999999996 Q 594.0809999999999 1573.3239999999996 589.175 1573.3189999999995 C 553.6819999999999 1573.2839999999994 553.6819999999999 1573.2839999999994 538.875 1568.8119999999994 L 536.649 1568.1629999999996 C 513.645 1561.1779999999997 493.383 1548.4609999999996 476 1531.9999999999995 L 473.508 1529.6679999999994 C 450.29699999999997 1507.2889999999995 436.54699999999997 1477.3409999999994 429.688 1446.1879999999994 L 429.204 1444.0189999999993 C 426.67400000000004 1431.6359999999993 426.848 1418.8819999999994 426.826 1406.2959999999994 L 426.80600000000004 1401.4229999999993 Q 426.785 1396.2229999999993 426.77000000000004 1391.0239999999994 Q 426.74600000000004 1382.8039999999994 426.70500000000004 1374.5859999999993 Q 426.59900000000005 1351.2319999999993 426.523 1327.8769999999993 Q 426.48100000000005 1314.9439999999993 426.41700000000003 1302.0089999999993 Q 426.377 1293.8339999999994 426.36100000000005 1285.6579999999994 Q 426.345 1280.5929999999994 426.314 1275.5259999999994 Q 426.30400000000003 1273.1719999999993 426.302 1270.8169999999993 C 426.2995018995649 1268.6813047946193 426.28950183787106 1266.545624952199 426.27200000000005 1264.4099999999987 L 426.25900000000007 1260.7839999999994 C 426.28600000000006 1257.8599999999994 426.28600000000006 1257.8599999999994 424.00000000000006 1255.9999999999993 C 421.39900000000006 1255.6929999999993 421.39900000000006 1255.6929999999993 418.34800000000007 1255.7269999999994 L 414.83200000000005 1255.6729999999993 L 411.06200000000007 1255.6249999999993 C 388.12000000000006 1255.0579999999993 371.78100000000006 1251.7809999999993 355.2150000000001 1235.2149999999992 C 345.0890000000001 1224.2599999999993 342.87200000000007 1210.7499999999993 342.7620000000001 1196.4219999999993 L 342.73700000000014 1193.3699999999994 Q 342.71700000000016 1190.1819999999993 342.70500000000015 1186.9959999999994 C 342.69333621999556 1184.8392564576557 342.6726693732639 1182.6825710003363 342.64300000000014 1180.5259999999992 C 342.6035040870435 1177.3871425421296 342.58050376944675 1174.2480991970542 342.5740000000003 1171.1089999999995 L 342.52100000000013 1168.2329999999995 C 342.56400000000014 1154.8339999999996 349.2720000000001 1141.3879999999995 358.28500000000014 1131.5859999999996 C 370.5070000000001 1120.2829999999994 382.5430000000001 1118.3859999999995 398.57000000000016 1118.1789999999996 Q 401.41400000000016 1118.1199999999997 404.2570000000002 1118.0589999999997 C 409.4490000000002 1117.9499999999998 414.64200000000017 1117.8659999999998 419.8340000000002 1117.7869999999998 C 424.28700000000015 1117.716 428.73900000000015 1117.6309999999999 433.19100000000014 1117.5469999999998 C 446.57100000000014 1117.293 459.95200000000017 1117.0769999999998 473.33300000000014 1116.87 Q 484.83500000000015 1116.6899999999998 496.33500000000015 1116.495 C 573.3830000000002 1115.215 650.4210000000002 1114.619 727.4800000000001 1114.625 L 738.1420000000002 1114.622 C 785.3520000000002 1114.602 832.5550000000002 1114.7530000000002 879.7550000000001 1115.778 Q 883.8030000000001 1115.863 887.8530000000001 1115.94 Q 894.1270000000001 1116.064 900.4010000000001 1116.226 Q 902.657 1116.2820000000002 904.9140000000001 1116.324 C 929.0790000000001 1116.79 949.6060000000001 1122.7060000000001 968.0000000000001 1139 C 969.7800000000001 1141.018 971.4420000000001 1142.991 973.0620000000001 1145.125 L 974.3710000000001 1146.847 C 980.8650000000001 1155.639 983.3040000000001 1164.2169999999999 986.0000000000001 1175 L 1056 1175 L 1057 1168 C 1062.024 1150.588 1072.68 1135.902 1088.227 1126.531 C 1102.064 1118.8909999999998 1118.1080000000002 1117.0249999999999 1133.7150000000001 1116.719 L 1136.152 1116.67 C 1209.644 1115.2250000000001 1283.126 1114.835 1356.632 1114.871 Q 1371.269 1114.8770000000002 1385.906 1114.8680000000002 Q 1400.331 1114.861 1414.7559999999999 1114.8650000000002 Q 1423.2399999999998 1114.8680000000002 1431.724 1114.8640000000003 C 1452.9279999999999 1114.8530000000003 1474.106 1114.9230000000002 1495.3 1115.6420000000003 C 1508.912 1116.0990000000004 1522.514 1116.1270000000002 1536.133 1116.0980000000002 L 1543.924 1116.093 Q 1552.964 1116.088 1562.004 1116.0720000000001 Q 1572.336 1116.057 1582.668 1116.0500000000002 Q 1603.8339999999998 1116.035 1625 1116.0000000000002 Q 1622.133 1115.5100000000002 1619.266 1115.0250000000003 L 1616.04 1114.4760000000003 C 1612.301 1113.8910000000003 1608.667 1113.5970000000004 1604.887 1113.4020000000003 L 1602.7269999999999 1113.2900000000002 C 1595.2279999999998 1112.9200000000003 1587.723 1112.7610000000002 1580.216 1112.612 C 1566.2109999999998 1112.324 1552.216 1111.8780000000002 1538.225 1111.1870000000001 C 1536.5381660019339 1111.1041751864263 1534.8511623887068 1111.0248416831762 1533.1639999999998 1110.9489999999998 Q 1529.65 1110.785 1526.137 1110.598 L 1524.024 1110.5059999999999 C 1519.2289999999998 1110.2289999999998 1519.2289999999998 1110.2289999999998 1517 1107.9999999999998 C 1516.2641672026366 1105.5529012071734 1515.6012080101023 1103.084478700564 1515.012 1100.5979999999997 L 1514.451 1098.3209999999997 C 1513.856 1095.9029999999998 1513.272 1093.4829999999997 1512.688 1091.0619999999997 Q 1511.5400000000002 1086.3609999999996 1510.3870000000002 1081.6599999999996 L 1509.794 1079.2379999999996 C 1507.864 1071.3779999999997 1505.797 1063.5569999999996 1503.7220000000002 1055.7339999999997 C 1501.3930000000003 1046.9169999999997 1499.1020000000003 1038.0899999999997 1496.8060000000003 1029.2639999999997 C 1496.183071053852 1026.8703005333193 1495.55873761304 1024.4769667879757 1494.9329999999998 1022.0839999999985 Q 1493.5520000000001 1016.7979999999998 1492.1800000000003 1011.5119999999997 L 1491.3000000000002 1008.1359999999997 C 1489.535 1001.2969999999997 1487.976 994.4829999999997 1486.8050000000003 987.5149999999998 C 1485.2560000000003 982.6759999999997 1481.4710000000002 980.4889999999998 1477.2460000000003 978.0389999999998 L 1474.4350000000004 976.3819999999997 L 1471.4380000000003 974.6249999999998 C 1460.4330000000002 968.0509999999998 1450.1360000000004 960.8339999999997 1440.0000000000002 952.9999999999998 L 1438.0040000000001 951.4639999999998 C 1433.9736314829283 948.3463364547858 1429.9721276736516 945.1915353842268 1426 942.0000000000002 L 1423.117 939.707 C 1417.201 934.946 1411.5729999999999 929.947 1406.02 924.773 C 1403.866 922.7710000000001 1401.658 920.851 1399.422 918.941 C 1394.077 914.283 1389.101 909.25 1384.1000000000001 904.23 C 1382.439748355909 902.5665833913621 1380.776746080373 900.9059144523521 1379.1109999999994 899.2479999999994 C 1373.5300000000002 893.6700000000001 1368.1190000000001 888.009 1363 882 C 1361.587246553395 880.4547419761622 1360.1705753282572 878.9130703488065 1358.75 877.3750000000002 C 1354.66 872.848 1350.89 868.128 1347.155 863.31 C 1344.204816242755 859.5166870406074 1341.1731103767622 855.7874854447504 1338.062 852.1249999999999 C 1333.117 846.239 1328.5269999999998 840.12 1323.945 833.949 C 1321.3 830.3879999999999 1318.597 826.877 1315.875 823.375 C 1311.667 817.939 1307.651 812.383 1303.684 806.77 C 1301.8066971376147 804.1233340091112 1299.9029350019368 801.4955355647847 1297.973 798.8870000000001 C 1289.982 788.0329999999999 1282.693 776.8309999999999 1275.526 765.42 C 1273.5057701878745 762.2190344582289 1271.4553453592514 759.037225810983 1269.375 755.875 L 1267.648 753.242 C 1265.944 750.924 1264.086 748.977 1262 747 L 1261.515 748.613 C 1259.5800000000002 754.753 1257.037 760.3910000000001 1254.125 766.125 L 1252.68 768.991 C 1247.1390000000001 779.86 1241.1080000000002 790.442 1235 801 L 1233.677 803.307 C 1223.299 821.395 1212.038 838.973 1200 856 L 1198.474 858.17 C 1191.163 868.5419999999999 1183.495 878.5219999999999 1175.4009999999998 888.294 C 1173.502 890.606 1171.658 892.959 1169.812 895.312 C 1166.3319999999999 899.6850000000001 1162.6029999999998 903.791 1158.7849999999999 907.871 C 1156.444 910.425 1154.3229999999999 913.122 1152.176 915.84 C 1146.335 923.0160000000001 1139.811 929.489 1133.253 936.0070000000001 C 1131.1304976015326 938.122835043998 1129.0134904707077 940.244175522752 1126.9019999999998 942.3709999999996 C 1119.5679999999998 949.7130000000001 1112.1559999999997 956.575 1103.9999999999998 963.0000000000001 C 1102.8229533688304 964.0052161626198 1101.654906797671 965.0209233265248 1100.4959999999996 966.0470000000003 C 1091.464 974.0440000000001 1081.9129999999998 981.1330000000002 1071.9999999999998 988.0000000000001 L 1069.4379999999999 989.7760000000001 C 1037.876 1011.5210000000001 1002.9979999999998 1028.672 965.9999999999999 1039 L 963.0299999999999 1039.832 C 935.8149999999998 1047.401 935.8149999999998 1047.401 925.9999999999999 1049 L 923.5549999999998 1049.418 C 914.2859999999998 1050.274 907.1119999999999 1042.985 900.3749999999999 1037.5 L 897.6019999999999 1035.176 C 895.3519999999999 1033.2939999999999 893.0739999999998 1031.4759999999999 890.7499999999999 1029.6879999999999 C 886.5398456258097 1026.4251317340543 882.3524112323407 1023.1330522825424 878.1879999999996 1019.8120000000001 L 876.2279999999998 1018.262 C 872.9639999999998 1015.66 869.8779999999998 1013.0369999999999 866.9999999999999 1010 L 868.9139999999999 1009.652 C 884.9429999999999 1006.697 900.4669999999999 1002.9300000000001 915.9999999999999 998 L 917.9239999999999 997.393 C 946.763 988.292 974.169 977.657 999 960 L 1001.941 957.926 C 1037.098 932.395 1059.964 896.08 1070 854 L 1068 854 L 1067.633 856.16 C 1060.028 890.2869999999999 1029.406 920.536 1002 940 L 999.991 941.44 C 961.65 968.5840000000001 912.744 980.9920000000001 867.857 992.4540000000001 C 864.771 993.2450000000001 861.7909999999999 994.0780000000001 858.805 995.195 C 855.486 996.147 854.2109999999999 996.2850000000001 851 995 C 848.357 992.999 846.001 990.745 843.625 988.438 L 841.703 986.631 C 838.51 983.5899999999999 835.491 980.473 832.617 977.129 C 828.4939999999999 972.333 824.005 967.934 819.5 963.5 C 814.368 958.449 809.382 953.376 804.693 947.911 C 801.22 943.9899999999999 797.399 940.4 793.635 936.762 L 791.816 934.977 L 790.174 933.385 C 789 932 789 932 789 930 L 790.886 929.696 C 829.435 923.458 867.31 915.857 898 890 L 899.546 888.712 C 917.452 873.622 936.528 848.737 943 826 L 943 822 L 940.91 825.148 C 935.4259999999999 833.322 929.775 840.833 923 848 C 921.9332622347729 849.2672564319198 920.8705901066373 850.5379296290504 919.8119999999997 851.8120000000004 C 894.57 880.686 860.457 896.165 823.793 904.373 Q 821.177 904.9590000000001 818.569 905.58 C 813.332 906.813 808.1669999999999 907.5120000000001 802.812 908 C 795.783 908.678 788.85 909.564 781.883 910.73 C 778.844 911.015 776.8810000000001 911.013 774 910 C 771.676 907.953 771.676 907.953 769.312 905.25 L 768.0070000000001 903.762 C 763.5820000000001 898.651 759.4820000000001 893.285 755.4230000000001 887.882 C 753.8213887620489 885.7698051036372 752.209034533544 883.6657778366695 750.586 881.5699999999997 L 748.8160000000001 879.2739999999999 C 747.6713521571096 877.7896225032539 746.5253516811403 876.3062885538474 745.378 874.8240000000008 C 738 865.217 738 865.217 738 862 L 736 862 L 735.66 864.471 C 734.889 868.593 733.7149999999999 872.474 732.4449999999999 876.465 L 731.6659999999999 878.942 Q 730.4019999999999 882.942 729.1249999999999 886.938 L 728.2429999999999 889.707 C 718.5989999999999 919.955 708.438 949.958 693.8749999999999 978.25 L 692.1729999999999 981.567 C 678.2069999999999 1008.147 659.3809999999999 1029.007 633.1879999999999 1043.75 L 630.8139999999999 1045.092 C 628.9119999999998 1046.13 626.9589999999998 1047.074 624.9999999999999 1048 L 622.9999999999999 1047 L 625.1329999999999 1044.457 C 639.534 1027.03 651.126 1008.319 661 988 L 661.983 986 C 670.266 968.896 674.9989999999999 949.701 678 931 L 678.533 927.881 C 680.327 916.2529999999999 680.437 904.682 680.438 892.938 L 680.444 889.7429999999999 C 680.4359999999999 868.0509999999999 677.992 847.9069999999999 672 826.9999999999999 L 670 826.9999999999999 L 670.032 830.9019999999999 C 670.46 888.777 669.413 958.06 632 1006 L 630.661 1007.729 C 621.112 1019.913 609.92 1028.64 596.9649999999999 1037.0040000000001 C 594.8231098009754 1038.4402685621374 592.7305724735354 1039.9488032022412 590.6909999999998 1041.527 L 589.0419999999999 1042.806 C 587.5209533240433 1044.0001090047035 586.0056028022386 1045.201455964797 584.4959999999998 1046.4100000000003 L 582 1048 L 579 1047 L 581.215 1045.398 C 584.26 1042.7759999999998 586.392 1039.963 588.562 1036.625 L 589.841 1034.67 C 607.535 1007.0910000000001 619.154 976.258 625 944.0000000000001 L 625.536 941.2370000000001 C 627.1289999999999 932.2160000000001 627.3389999999999 923.3670000000001 627.3159999999999 914.2360000000001 C 627.3129999999999 911.7020000000001 627.3359999999999 909.1690000000001 627.3609999999999 906.6350000000001 C 627.3999999999999 896.0910000000001 626.3609999999999 886.2760000000001 623.9999999999999 876.0000000000001 C 623.2289999999999 878.8100000000001 622.7999999999998 881.4840000000002 622.5699999999999 884.3870000000002 L 622.3539999999999 886.9550000000002 L 622.1249999999999 889.6880000000001 C 621.3419999999999 898.4200000000001 620.1839999999999 906.9740000000002 618.4779999999998 915.575 C 618.1084084059858 917.4570917187253 617.7487367460895 919.3411178741784 617.3989999999999 921.2270000000003 C 615.5039999999999 931.1460000000001 613.0399999999998 940.8420000000001 610.3119999999999 950.5620000000001 L 609.6439999999999 952.9520000000001 C 600.1139999999999 986.8470000000001 585.1019999999999 1017.3860000000001 567.4999999999999 1047.8120000000001 C 564.6647880929867 1052.7021183005975 562.1592165070242 1057.7760678002771 560 1063 L 561.715 1061.469 L 563.938 1059.5 L 566.152 1057.531 C 568 1056 568 1056 569 1056 C 569.03 1060.312 569.047 1064.625 569.062 1068.938 L 569.088 1072.4940000000001 C 569.121 1085.0100000000002 568.5559999999999 1097.4990000000003 568 1110.0000000000002 Q 554.157 1110.4750000000001 540.312 1110.9380000000003 L 538.223 1111.0070000000003 C 518.635 1111.6610000000003 499.049 1112.2270000000003 479.45399999999995 1112.6180000000004 C 470.25299999999993 1112.8020000000004 461.05799999999994 1112.9880000000003 451.864 1113.4120000000005 L 448.5 1113.5620000000006 L 446.091 1113.6770000000006 C 437.986 1114.0280000000007 429.89300000000003 1114.0500000000006 421.781 1114.0270000000005 L 417.747 1114.0210000000004 Q 412.873 1114.0140000000004 408 1114.0000000000005 Q 407.857 1099.1950000000004 407.793 1084.3890000000004 C 407.772 1079.8010000000004 407.745 1075.2130000000004 407.698 1070.6250000000005 C 407.36499999999995 1036.8630000000005 409.73499999999996 1003.7510000000004 415.375 970.4380000000004 L 416.287 964.8940000000005 C 417.166 959.5910000000005 418.075 954.2950000000004 419 949.0000000000005 L 419.396 946.7270000000004 C 433.935 863.6040000000004 464.75300000000004 783.7540000000004 511.312 713.3120000000005 L 513.344 710.2310000000004 C 524.591 693.3910000000004 524.591 693.3910000000004 531.975 691.4920000000004 C 534.386 691.0320000000004 536.799 690.6450000000004 539.227 690.2810000000004 L 541.961 689.8450000000004 C 544.847 689.3870000000004 547.736 688.9430000000003 550.625 688.5000000000003 Q 553.457 688.0550000000003 556.289 687.6050000000004 Q 561.899 686.7200000000004 567.512 685.8510000000003 C 573.577 684.9120000000004 579.64 683.9540000000003 585.702 682.9930000000004 C 605.397 679.8760000000004 605.397 679.8760000000004 613 680.0000000000003 L 613 678.0000000000003 Q 600.884 677.9640000000004 588.767 677.9480000000003 Q 583.1370000000001 677.9410000000004 577.5060000000001 677.9250000000003 C 544.07 677.6710000000003 544.07 677.6710000000003 510.81200000000007 680.6880000000003 L 507.0880000000001 681.2090000000003 C 503.05500000000006 681.7860000000003 499.0270000000001 682.3880000000003 495.00000000000006 683.0000000000003 L 492.78700000000003 683.3340000000003 C 467.16600000000005 687.2100000000003 442.79100000000005 692.2970000000003 418.33500000000004 701.1050000000002 L 415.172 702.2420000000002 L 412.362 703.2690000000002 C 410 704 410 704 407 704 C 408.478 698.851 410.766 694.618 413.5 690.062 L 414.846 687.8000000000001 C 418.891 681.0680000000001 423.18 674.523 427.612 668.041 C 429.1303978105093 665.800661767595 430.6374172136716 663.5526328237933 432.133 661.297 C 437.855 652.745 443.73300000000006 644.578 450.52000000000004 636.84 C 452.74514189396973 634.2811988322417 454.90581994704723 631.6670451383948 457 629 C 463.642 620.643 470.361 612.372 478.05 604.95 C 479.868 603.1320000000001 481.546 601.263 483.21500000000003 599.3090000000001 C 487.09700000000004 594.8430000000001 491.158 590.5860000000001 495.312 586.3750000000001 L 497.42 584.1800000000001 C 503.77700000000004 577.7460000000001 510.874 572.893 519.375 569.6880000000001 L 521.773 568.7620000000001 C 556.365 556.928 612.75 575.153 646 586 L 649.48 587.133 C 656.3353811685579 589.3757787517351 663.1755371620947 591.6648309548353 670.0000000000003 594.0000000000002 L 669.329 591.807 C 660.752 563.653 660.752 563.653 658.406 551.15 Q 657.9989999999999 548.995 657.5509999999999 546.85 C 654.8549999999999 533.72 654.7099999999999 520.6 654.6879999999999 507.25 L 654.6769999999999 504.575 C 654.6709999999999 502.013 654.6819999999999 499.452 654.699 496.89099999999996 L 654.697 494.58199999999994 C 654.792 487.13999999999993 656.019 480.04999999999995 659.562 473.43799999999993 L 660.879 470.8709999999999 C 667.025 462.55099999999993 675.539 457.57899999999995 684.438 452.62499999999994 L 687.91 450.65999999999997 C 691.266 448.76099999999997 694.6329999999999 446.881 698 444.99999999999994 Q 700.57 443.54699999999997 703.137 442.0899999999999 C 711.0769702232732 437.5933337688857 719.1467533233921 433.3298444951546 727.3359999999999 429.3049999999999 C 730.9398805570089 427.52803516922387 734.5286754448266 425.720637260832 738.1019999999999 423.883 C 781.7449999999999 401.6199999999999 828.5149999999999 381.37199999999984 876.6549999999999 371.4879999999999 C 878.8629999999998 371.0289999999999 881.0599999999998 370.5389999999999 883.2579999999998 370.0349999999999 C 888.6429999999998 368.8149999999999 893.4569999999998 367.8429999999999 898.9999999999998 367.9999999999999 Z M 526.9100000000001 1226.438 C 515.7740000000001 1241.2530000000002 512.5290000000001 1258.433 512.6120000000001 1276.558 L 512.5960000000001 1281.102 C 512.5820000000001 1285.1760000000002 512.5870000000001 1289.251 512.5970000000001 1293.325 C 512.6050000000001 1297.616 512.5980000000001 1301.906 512.5930000000001 1306.1960000000001 Q 512.5860000000001 1317.0020000000002 512.609 1327.8070000000002 C 512.625 1336.0990000000002 512.62 1344.3900000000003 512.6030000000001 1352.6820000000002 Q 512.5830000000001 1363.4150000000002 512.5960000000001 1374.1480000000001 Q 512.6040000000002 1380.535 512.5910000000001 1386.921 Q 512.5790000000002 1392.931 512.6060000000001 1398.943 C 512.6101618452383 1400.4006665141383 512.6088285024306 1401.858343538775 512.6020000000002 1403.316 C 512.4970000000001 1428.444 520.2030000000001 1449.931 538.0000000000001 1468 C 550.7080000000001 1480.731 568.7440000000001 1490.088 586.9900000000001 1490.298 L 589.6040000000002 1490.299 L 592.4420000000001 1490.3229999999999 C 595.5660000000001 1490.3469999999998 598.6890000000001 1490.357 601.8120000000001 1490.3659999999998 L 608.5500000000002 1490.4109999999998 C 614.6440000000002 1490.4519999999998 620.7370000000002 1490.4789999999998 626.8310000000001 1490.504 Q 634.4790000000002 1490.5369999999998 642.1270000000002 1490.579 C 654.8570000000002 1490.647 667.5880000000002 1490.701 680.3180000000002 1490.751 C 691.3340000000002 1490.7939999999999 702.3490000000002 1490.854 713.3640000000003 1490.922 Q 730.3770000000003 1491.026 747.3910000000003 1491.095 Q 756.9240000000003 1491.131 766.4550000000003 1491.193 Q 775.4370000000002 1491.251 784.4190000000003 1491.27 Q 787.6940000000003 1491.28 790.9690000000003 1491.307 C 820.9590000000003 1491.548 845.7680000000003 1486.51 868.1880000000003 1465.125 C 882.1040000000004 1450.678 892.0890000000003 1429.454 892.1400000000003 1409.285 L 892.1490000000003 1407.315 Q 892.1610000000003 1404.069 892.1610000000003 1400.8220000000001 L 892.1760000000003 1396.1490000000001 Q 892.1950000000003 1389.813 892.2000000000003 1383.478 L 892.2120000000002 1375.549 Q 892.2320000000002 1363.125 892.2390000000003 1350.702 Q 892.2460000000002 1336.396 892.2900000000003 1322.092 Q 892.3220000000003 1311.01 892.3230000000003 1299.93 Q 892.3230000000003 1293.324 892.3480000000003 1286.717 Q 892.3710000000003 1280.4940000000001 892.3580000000003 1274.2720000000002 Q 892.3560000000003 1272.0010000000002 892.3710000000003 1269.7300000000002 C 892.4900000000004 1250.5080000000003 887.2980000000003 1235.0660000000003 874.0470000000004 1220.9140000000002 C 856.4380000000003 1203.8920000000003 833.6420000000004 1202.255 810.5890000000004 1202.3850000000002 Q 806.6250000000003 1202.38 802.6600000000004 1202.3680000000002 C 796.2630000000004 1202.3540000000003 789.8650000000005 1202.3660000000002 783.4680000000004 1202.3870000000002 C 776.0030000000004 1202.411 768.5380000000005 1202.409 761.0720000000005 1202.4070000000002 C 747.7470000000004 1202.4030000000002 734.4210000000005 1202.4240000000002 721.0960000000005 1202.458 Q 701.7390000000005 1202.508 682.3830000000005 1202.499 Q 661.2500000000005 1202.487 640.1170000000005 1202.5140000000001 L 637.8560000000006 1202.518 L 633.3630000000005 1202.5240000000001 Q 625.5730000000005 1202.5330000000001 617.7830000000005 1202.5300000000002 Q 608.2830000000005 1202.5270000000003 598.7840000000004 1202.5620000000001 Q 593.9450000000004 1202.5810000000001 589.1060000000004 1202.575 C 585.5990000000005 1202.5710000000001 582.0930000000004 1202.586 578.5860000000005 1202.606 L 575.5410000000005 1202.589 C 555.6690000000006 1202.778 539.6170000000005 1211.617 526.9100000000005 1226.4379999999999 Z M 1172 1223 C 1160.393 1237.93 1155.685 1253.338 1155.741 1272.098 L 1155.731 1276.674 C 1155.722 1280.8 1155.725 1284.927 1155.731 1289.0529999999999 C 1155.736 1293.388 1155.732 1297.723 1155.729 1302.058 Q 1155.724 1312.985 1155.739 1323.912 Q 1155.7540000000001 1336.499 1155.736 1349.085 Q 1155.7220000000002 1359.928 1155.73 1370.77 Q 1155.737 1377.229 1155.727 1383.689 Q 1155.72 1389.7730000000001 1155.737 1395.8580000000002 Q 1155.741 1398.074 1155.7350000000001 1400.2910000000002 C 1155.701 1412.4260000000002 1155.8000000000002 1425.0090000000002 1161.188 1436.1250000000002 L 1162.1260000000002 1438.1440000000002 C 1163.0596616387181 1440.107850897532 1164.0177358778385 1442.0600021655516 1165 1444 L 1166.629 1447.258 C 1170.9759999999999 1455.282 1176.599 1461.5900000000001 1183 1468 L 1184.992 1470.027 C 1199.411 1483.673 1220.424 1490.354 1239.961 1490.2540000000001 L 1242.842 1490.2630000000001 C 1246.0010000000002 1490.2710000000002 1249.159 1490.265 1252.3180000000002 1490.2590000000002 L 1259.1450000000002 1490.2690000000002 C 1265.3090000000002 1490.2790000000002 1271.4720000000002 1490.2750000000003 1277.6350000000002 1490.2690000000002 C 1284.0980000000002 1490.2640000000001 1290.5610000000001 1490.2680000000003 1297.0240000000001 1490.2710000000002 Q 1314.3480000000002 1490.2760000000003 1331.6730000000002 1490.2590000000002 Q 1347.3470000000002 1490.2460000000003 1363.0200000000002 1490.2610000000002 Q 1381.2600000000002 1490.2770000000003 1399.4990000000003 1490.2700000000002 Q 1409.1390000000004 1490.2630000000001 1418.7810000000002 1490.2730000000001 Q 1427.851 1490.2800000000002 1436.9210000000003 1490.2630000000001 Q 1440.2390000000003 1490.2590000000002 1443.5560000000003 1490.265 C 1468.6940000000002 1490.3110000000001 1491.3230000000003 1487.3110000000001 1510.1450000000002 1468.91 C 1524.2720000000002 1454.66 1533.0620000000001 1437.0910000000001 1533.1540000000002 1416.767 L 1533.1670000000001 1414.665 Q 1533.1850000000002 1411.206 1533.1930000000002 1407.7459999999999 L 1533.2180000000003 1402.762 C 1533.2440000000004 1397.32 1533.2590000000002 1391.879 1533.2730000000004 1386.4379999999999 L 1533.2900000000004 1380.7969999999998 Q 1533.3230000000003 1369.0569999999998 1533.3410000000003 1357.3149999999998 Q 1533.3640000000003 1340.5449999999998 1533.4480000000003 1323.7759999999998 C 1533.4855010283475 1315.894385935565 1533.5065010743717 1308.0127019956044 1533.5110000000013 1300.1310000000012 C 1533.5150000000003 1295.434 1533.5270000000005 1290.7369999999999 1533.5590000000004 1286.04 Q 1533.6040000000005 1279.402 1533.5840000000005 1272.763 Q 1533.5840000000005 1270.3439999999998 1533.6090000000006 1267.925 C 1533.8010000000006 1249.522 1528.4080000000006 1234.029 1515.6020000000005 1220.387 C 1502.4670000000006 1208.337 1484.5000000000005 1202.674 1466.9510000000005 1202.739 L 1463.6420000000005 1202.728 C 1459.9930000000006 1202.717 1456.3450000000005 1202.721 1452.6970000000006 1202.7250000000001 Q 1448.7660000000005 1202.719 1444.8350000000005 1202.71 C 1438.4616741982288 1202.6979998567926 1432.0883358437889 1202.6939998536416 1425.7149999999942 1202.6980000000003 Q 1417.9390000000005 1202.7 1410.1620000000005 1202.693 L 1407.9230000000005 1202.692 L 1403.4190000000006 1202.688 C 1389.3470000000007 1202.6770000000001 1375.2760000000005 1202.679 1361.2040000000006 1202.6850000000002 C 1348.3510000000006 1202.6910000000003 1335.4990000000007 1202.679 1322.6460000000006 1202.66 Q 1302.8220000000006 1202.632 1282.9990000000007 1202.6360000000002 Q 1271.8810000000008 1202.6410000000003 1260.7620000000006 1202.6220000000003 C 1253.7880052428618 1202.6091664656947 1246.8139921760826 1202.609833133611 1239.8399999999972 1202.6240000000007 Q 1236.0090000000007 1202.6280000000002 1232.1790000000005 1202.6150000000002 C 1208.8760000000004 1202.5450000000003 1188.5030000000006 1204.3610000000003 1172.0000000000005 1223.0000000000002 Z" stroke-linecap="round" />
</g>
		<g transform="matrix(-0.14168509533335535 0 0 0.14168509533335533 41.878195699847595 53.535786090608724)"  >
<path style="stroke: rgb(68,86,52); stroke-width: 1; stroke-dasharray: none; stroke-linecap: butt; stroke-dashoffset: 0; stroke-linejoin: miter; stroke-miterlimit: 4; fill: rgb(0,0,0); fill-rule: nonzero; opacity: 1;"  paint-order="stroke"  transform=" translate(-725.5409401417688, -1354.0946541365124)" d="M 784.159 1283.499 C 794.869 1292.233 802.999 1301.538 808.999 1313.999 L 810.481 1316.864 C 815.901 1327.849 817.548 1339.16 817.438 1351.313 L 817.415 1354.883 C 816.958 1379.13 806.664 1400.558 789.495 1417.578 C 770.869 1435.2939999999999 745.598 1444.783 719.977 1444.305 C 694.904 1442.384 672.37 1429.9080000000001 656 1411 C 641.536 1393.588 632.364 1371.09 633.783 1348.135 C 636.235 1324.094 646.773 1302.972 665 1287 C 675.919 1278.369 689.35 1270.287 703 1267 L 706.465 1266.165 C 733.95 1260.051 761.792 1266.241 784.159 1283.499 Z M 747.999 1294.999 L 745.864 1297.089 C 739.652 1303.614 736.8770000000001 1308.8229999999999 736.624 1317.9379999999999 C 736.914 1328.0829999999999 739.426 1333.358 746.496 1340.723 C 753.783 1347.3509999999999 760.586 1348.8329999999999 770.371 1348.489 C 775.679 1347.775 779.607 1345.998 784 1342.999 C 784.583 1342.605 785.166 1342.209 785.766 1341.801 C 791.0519999999999 1337.783 794.9689999999999 1332.301 797 1326 C 797.783 1317.872 798.175 1309.755 793 1303 C 790.646 1300.229 790.646 1300.229 788 1298 L 785.75 1295.938 C 775.538 1288.7430000000002 757.785 1285.124 748 1295 Z" stroke-linecap="round" />
</g>
		<g transform="matrix(-0.14168509533335535 0 0 0.14168509533335533 -44.311119754529514 53.318442099348744)"  >
<path style="stroke: rgb(68,86,52); stroke-width: 1; stroke-dasharray: none; stroke-linecap: butt; stroke-dashoffset: 0; stroke-linejoin: miter; stroke-miterlimit: 4; fill: rgb(0,0,0); fill-rule: nonzero; opacity: 1;"  paint-order="stroke"  transform=" translate(-1306.9146910866534, -1352.5606608061016)" d="M 1360 1285 C 1363.498 1287.849 1366.785 1290.837 1370 1294 L 1372.34 1296.301 C 1382.8519999999999 1307.28 1388.129 1319.5459999999998 1392 1334 L 1392.54 1335.861 C 1396.657 1355.0010000000002 1392.797 1377.2540000000001 1382.9379999999999 1394.0200000000002 C 1368.697 1415.9260000000002 1350.4129999999998 1430.5550000000003 1324.6209999999999 1436.457 L 1322 1437 L 1319.684 1437.559 C 1297.191 1441.258 1274.2559999999999 1434.067 1256 1421 C 1251.715 1417.621 1247.829 1413.881 1244 1410 L 1241.984 1407.98 C 1227.433 1392.413 1219.456 1370.627 1219.664 1349.461 C 1220.92 1326.483 1231.754 1305.238 1248.184 1289.41 C 1260.189 1279.1360000000002 1275.519 1271.19 1291 1268 L 1293.656 1267.449 C 1317.818 1264.203 1340.513 1270.229 1360 1285 Z M 1294 1288 C 1288.006 1296.787 1286.147 1303.326 1287 1314 C 1288.934 1322.344 1293.572 1328.869 1300.535 1333.793 C 1308.5040000000001 1338.734 1315.488 1340.4989999999998 1324.816 1338.3519999999999 C 1333.756 1335.4419999999998 1340.2930000000001 1330.368 1344.9650000000001 1322.1639999999998 C 1348.3010000000002 1315.1889999999999 1350.123 1308.5989999999997 1348.0000000000002 1300.9999999999998 C 1344.2760000000003 1291.5599999999997 1339.2020000000002 1284.5929999999998 1330.0000000000002 1279.9999999999998 C 1316.8120000000001 1274.8159999999998 1303.7950000000003 1277.9819999999997 1294.0000000000002 1287.9999999999998 Z" stroke-linecap="round" />
</g>
		<g transform="matrix(-0.14168509533335535 0 0 0.14168509533335533 116.27746954734931 49.03306561427681)"  >
<path style="stroke: rgb(68,86,52); stroke-width: 1; stroke-dasharray: none; stroke-linecap: butt; stroke-dashoffset: 0; stroke-linejoin: miter; stroke-miterlimit: 4; fill: rgb(0,0,0); fill-rule: nonzero; opacity: 1;"  paint-order="stroke"  transform=" translate(-221.9917306946614, -1334.761241229538)" d="M 338 1100 C 341 1102.5 341 1102.5 343 1105 L 344 1106 C 344.775 1113.23 344.315 1119.058 340 1125 C 335.144 1130.911 329.911 1136.329 324.062 1141.258 C 321.66 1143.287 319.331 1145.3890000000001 317 1147.5 C 314.1241858203869 1150.108792050252 311.207151874555 1152.6717814188871 308.24999999999994 1155.188 C 303.694 1159.142 299.493 1163.4540000000002 295.274 1167.7620000000002 C 292.3 1170.7820000000002 289.275 1173.6710000000003 286.062 1176.438 C 281.83 1180.0910000000001 277.914 1184.01 274 1188 C 269.42 1192.669 264.769 1197.141 259.812 1201.41 C 257.42900000000003 1203.501 255.211 1205.729 253 1208 C 249.52 1211.574 245.885 1214.87 242.119 1218.135 C 238.579 1221.251 235.17 1224.503 231.75 1227.75 C 226.897 1232.343 222.026 1236.903 217.062 1241.375 C 211 1246.892 205.241 1252.702 199.49200000000002 1258.544 C 195.37400000000002 1262.711 191.16600000000003 1266.679 186.72400000000002 1270.499 C 184.71900000000002 1272.2450000000001 182.846 1274.088 181.00000000000003 1276 C 178.48000000000002 1278.559 175.91900000000004 1280.982 173.18800000000002 1283.312 C 169.79800000000003 1286.223 166.63500000000002 1289.322 163.50000000000003 1292.5 C 159.81009736064908 1296.2502018637567 155.96018756327436 1299.8395362601652 151.96100000000004 1303.258 C 149.71400000000006 1305.2540000000001 147.61100000000005 1307.3600000000001 145.50000000000003 1309.5 C 142.85300000000004 1312.183 140.18900000000002 1314.753 137.31200000000004 1317.188 C 130.84200000000004 1322.7220000000002 124.97800000000004 1328.9460000000001 119.00000000000004 1335 C 120.89300000000004 1339.179 123.75100000000005 1341.796 127.12500000000004 1344.812 L 128.91800000000003 1346.442 C 132.48120597263122 1349.6595125263498 136.08178374302315 1352.835394798225 139.7190000000003 1355.9690000000003 C 142.99 1358.882 146.17900000000003 1361.88 149.37500000000003 1364.875 C 156.41700000000003 1371.473 163.52100000000002 1377.989 170.81200000000004 1384.312 C 175.51500000000004 1388.4089999999999 180.07400000000004 1392.6599999999999 184.64800000000005 1396.898 C 187.71200000000005 1399.7369999999999 190.79200000000006 1402.558 193.87500000000006 1405.375 C 198.40000000000006 1409.515 202.89400000000006 1413.688 207.37500000000006 1417.875 L 209.27700000000004 1419.652 L 213.09300000000005 1423.218 C 223.95900000000006 1433.421 223.95900000000006 1433.421 235.08600000000004 1443.336 C 238.24400000000003 1446.082 241.34300000000005 1448.895 244.44900000000004 1451.699 Q 246.88500000000005 1453.896 249.33200000000005 1456.082 C 255.17100000000005 1461.3010000000002 260.898 1466.632 266.6120000000001 1471.987 C 270.2643449835203 1475.4127448045897 273.98816444120496 1478.7614817222172 277.7810000000001 1482.0310000000002 C 281.08000000000004 1484.958 284.28400000000005 1487.9840000000002 287.50000000000006 1491.0000000000002 C 291.93100000000004 1495.1550000000002 296.37600000000003 1499.2680000000003 300.9800000000001 1503.2300000000002 C 303.69500000000005 1505.6090000000002 306.34600000000006 1508.0550000000003 309.00000000000006 1510.5000000000002 C 312.94930580639357 1514.1451188382246 316.9524119742914 1517.7315125885782 321.00800000000015 1521.2580000000005 C 323.35490988923186 1523.3203999658595 325.6856478895891 1525.4011303145764 327.99999999999966 1527.4999999999995 C 330.97639935747947 1530.19309966877 333.9765162663445 1532.8598702544277 336.9999999999999 1535.4999999999998 L 338.922 1537.184 Q 341.24300000000005 1539.211 343.57800000000003 1541.223 C 354.36800000000005 1550.672 354.36800000000005 1550.672 355.367 1555.934 C 355.608 1559.687 355.064 1561.864 353.43800000000005 1565.312 C 349.63400000000007 1569.5059999999999 345.52400000000006 1571.106 339.93800000000005 1571.4379999999999 C 331.96400000000006 1570.552 327.88100000000003 1565.001 322.492 1559.4999999999998 C 319.872 1556.8719999999998 317.146 1554.4539999999997 314.32800000000003 1552.0429999999997 C 311.15700000000004 1549.2609999999997 308.083 1546.3789999999997 305.00000000000006 1543.4999999999998 C 300.69800000000004 1539.4869999999999 296.37600000000003 1535.5169999999998 291.9220000000001 1531.6719999999998 C 289.58900000000006 1529.6419999999998 287.2950000000001 1527.572 285.00000000000006 1525.4999999999998 C 282.0678257413008 1522.8456662577378 279.10934633336313 1520.2205366422438 276.1250000000001 1517.6249999999998 C 270.65400000000005 1512.8559999999998 265.33500000000004 1507.9199999999998 260.00000000000006 1502.9999999999998 L 258.40000000000003 1501.5249999999999 C 253.4501673197048 1496.9637045466645 248.50682897970964 1492.3953665864726 243.5699999999992 1487.8199999999981 C 238.48700000000002 1483.1109999999999 233.39000000000001 1478.432 228.14800000000002 1473.898 C 224.68600000000004 1470.839 221.30900000000003 1467.686 217.92000000000002 1464.5449999999998 C 213.822901546648 1460.7574540198364 209.6944259118616 1457.0039913111002 205.53499999999968 1453.2849999999994 C 202.63474119933198 1450.6632528508458 199.74803606820672 1448.026551050938 196.87499999999983 1445.3749999999995 C 193.68100000000004 1442.4369999999997 190.47600000000003 1439.5199999999998 187.18800000000002 1436.6879999999999 C 182.54700000000003 1432.6699999999998 178.096 1428.447 173.63000000000002 1424.2369999999999 C 170.47800000000004 1421.2759999999998 167.29700000000003 1418.3659999999998 164.03100000000003 1415.531 C 159.22700000000003 1411.356 154.62000000000003 1406.982 150.00000000000003 1402.605 C 146.04126124390373 1398.8742604948923 142.00607150529945 1395.225486100173 137.89699999999996 1391.6609999999998 C 135.08900000000003 1389.203 132.35600000000002 1386.6680000000001 129.62500000000003 1384.125 C 123.3060246336545 1378.2674802524728 116.92297381596447 1372.479465245811 110.47700000000023 1366.7620000000002 C 90.19000000000003 1348.691 90.19000000000003 1348.691 88.56200000000004 1335.4379999999999 C 88.81100000000004 1324.2259999999999 98.65900000000003 1315.4779999999998 106.00000000000004 1307.9999999999998 L 108.20700000000004 1305.7109999999998 C 111.27583258913332 1302.564988388325 114.48055046657717 1299.5544553942411 117.81200000000004 1296.6879999999999 C 121.20200000000004 1293.7769999999998 124.36500000000004 1290.6779999999999 127.50000000000004 1287.4999999999998 C 131.2108726314793 1283.7267866774434 135.08280609691283 1280.1154288291148 139.10500000000002 1276.6759999999997 C 141.86900000000006 1274.2309999999998 144.42000000000004 1271.5889999999997 147.00800000000004 1268.9609999999998 C 148.90300000000005 1267.0949999999998 150.85400000000004 1265.3529999999998 152.87500000000003 1263.6249999999998 C 156.06700000000004 1260.8839999999998 159.04300000000003 1257.9929999999997 162.00000000000003 1254.9999999999998 C 164.81500000000003 1252.1509999999998 167.62700000000004 1249.3949999999998 170.68800000000002 1246.8119999999997 C 174.848 1243.2619999999997 178.65400000000002 1239.3829999999996 182.50000000000003 1235.4999999999998 C 186.80200000000002 1231.1559999999997 191.10300000000004 1226.9399999999998 195.78100000000003 1222.9999999999998 C 199.15000000000003 1219.9629999999997 202.30900000000003 1216.7219999999998 205.50000000000003 1213.4999999999998 C 209.85900000000004 1209.1039999999998 214.20600000000002 1204.7839999999999 218.93400000000003 1200.7809999999997 C 223.50500000000002 1196.8409999999997 227.87900000000002 1192.6719999999998 232.30300000000003 1188.5669999999998 C 233.92925031223118 1187.0670632615113 235.5612623781234 1185.5733855516944 237.19899999999987 1184.0859999999998 C 243.84918047622807 1178.0207537161032 250.3270859435265 1171.7692714863367 256.625 1165.3389999999995 C 260.266 1161.6439999999998 264.031 1158.1769999999997 267.958 1154.7879999999998 C 271.47900000000004 1151.7049999999997 274.85600000000005 1148.4719999999998 278.25 1145.2499999999998 C 283.017 1140.7369999999999 287.801 1136.2579999999998 292.688 1131.8749999999998 C 296.699 1128.2369999999999 300.546 1124.4659999999997 304.348 1120.6089999999997 L 305.807 1119.1329999999996 C 308.244 1116.6659999999995 310.671 1114.1919999999996 313.08500000000004 1111.7029999999995 C 328.062 1096.4789999999996 328.062 1096.4789999999996 338.00000000000006 1099.9999999999995 Z" stroke-linecap="round" />
</g>
		<g transform="matrix(-0.14168509533335535 0 0 0.14168509533335533 -116.33503565476053 51.63473827510188)"  >
<path style="stroke: rgb(68,86,52); stroke-width: 1; stroke-dasharray: none; stroke-linecap: butt; stroke-dashoffset: 0; stroke-linejoin: miter; stroke-miterlimit: 4; fill: rgb(0,0,0); fill-rule: nonzero; opacity: 1;"  paint-order="stroke"  transform=" translate(-1825.236028462144, -1335.0520514387852)" d="M 1724 1099 C 1730.754 1102.104 1735.325 1107.013 1740.438 1112.312 C 1745.5030000000002 1117.5159999999998 1750.5600000000002 1122.609 1756.077 1127.3349999999998 C 1759.372 1130.1879999999999 1762.521 1133.1949999999997 1765.688 1136.1879999999999 L 1769.9060000000002 1140.156 L 1772.0000000000002 1142.125 C 1774.8820000000003 1144.827 1777.7820000000002 1147.51 1780.6880000000003 1150.188 L 1782.2740000000003 1151.651 Q 1786.2640000000004 1155.3300000000002 1790.2730000000004 1158.988 C 1796.268599280347 1164.4627489504546 1802.1257786423414 1170.0871882922581 1807.8390000000004 1175.856 C 1810.9992394944868 1179.0351608645324 1814.2900716985123 1182.0817828928334 1817.7030000000004 1184.988 C 1820.8880000000004 1187.778 1823.9720000000004 1190.67 1827.0620000000004 1193.5620000000001 L 1829.0030000000004 1195.3790000000001 Q 1833.0130000000004 1199.1340000000002 1837.0190000000005 1202.8940000000002 C 1846.2890000000004 1211.6050000000002 1846.2890000000004 1211.6050000000002 1855.8010000000004 1220.0510000000002 C 1860.3300000000004 1224.065 1864.7120000000004 1228.2420000000002 1869.1290000000004 1232.3790000000001 C 1873.1430797221676 1236.137223013511 1877.174455854633 1239.8769293827959 1881.2229999999995 1243.5979999999995 L 1884.4030000000005 1246.5280000000002 C 1886.5775409154116 1248.5333583921617 1888.7508746424044 1250.540025422301 1890.923000000001 1252.5480000000025 Q 1894.9600000000005 1256.2750000000003 1899.0000000000005 1260.0000000000002 L 1900.6070000000004 1261.4820000000002 C 1907.6390000000004 1267.976 1907.6390000000004 1267.976 1914.8120000000004 1274.3120000000001 C 1919.4970000000003 1278.3680000000002 1923.9830000000004 1282.6370000000002 1928.5000000000005 1286.8770000000002 C 1931.7220000000004 1289.8960000000002 1934.9560000000004 1292.8790000000001 1938.3120000000004 1295.7500000000002 C 1957.1090000000004 1312.0430000000001 1957.1090000000004 1312.0430000000001 1958.2380000000003 1322.1290000000001 C 1958.4930000000004 1330.4740000000002 1956.4980000000003 1337.363 1951.0620000000004 1343.8120000000001 C 1949.7260763975016 1345.2254196944002 1948.3719635928076 1346.621535998206 1947 1348 L 1943.938 1351.141 C 1939.5040000000001 1355.6470000000002 1935.083 1360.102 1930.277 1364.2150000000001 C 1924.91 1368.861 1919.98 1373.949 1915 1379.0000000000002 C 1909.43 1384.6490000000001 1903.865 1390.2300000000002 1897.832 1395.3910000000003 C 1894.737 1398.1090000000004 1891.88 1401.0580000000002 1889 1404.0000000000002 C 1884.815 1408.2340000000002 1880.603 1412.3180000000002 1876.055 1416.1640000000002 C 1872.702 1419.1600000000003 1869.587 1422.3930000000003 1866.428 1425.5920000000003 C 1863.0657411235268 1428.972358312889 1859.5619400164844 1432.2089203524447 1855.9260000000002 1435.2930000000003 C 1853.689 1437.2760000000003 1851.5990000000002 1439.3720000000003 1849.5000000000002 1441.5000000000005 C 1846.8530000000003 1444.1830000000004 1844.1890000000003 1446.7530000000004 1841.3120000000001 1449.1880000000006 C 1837.334 1452.5920000000006 1833.68 1456.2810000000006 1830.0000000000002 1460.0000000000005 C 1825.7910000000002 1464.2530000000004 1821.5600000000002 1468.3640000000005 1816.9880000000003 1472.2300000000005 C 1813.4630000000002 1475.3680000000004 1810.2020000000002 1478.7810000000004 1806.9060000000002 1482.1560000000004 C 1804.0970000000002 1484.9700000000005 1801.1060000000002 1487.5500000000004 1798.102 1490.1520000000005 C 1794.566 1493.2610000000004 1791.164 1496.5090000000005 1787.75 1499.7500000000005 C 1782.919 1504.3230000000005 1778.069 1508.8630000000005 1773.125 1513.3120000000004 C 1766.816 1519.0530000000003 1760.833 1525.1120000000003 1754.848 1531.1890000000003 C 1750.608 1535.4750000000004 1746.2839999999999 1539.5520000000004 1741.711 1543.4800000000002 C 1739.5720000000001 1545.3800000000003 1737.72 1547.4410000000003 1735.875 1549.6250000000002 C 1732.05 1553.9560000000001 1728.019 1557.9830000000002 1723.812 1561.9380000000003 L 1722.048 1563.6220000000003 C 1716.023 1569.2150000000004 1710.939 1571.6330000000003 1702.633 1571.4300000000003 C 1698.477 1570.7510000000002 1696.794 1569.0880000000002 1694 1566.0000000000002 C 1691.747 1561.4940000000001 1691.877 1556.8220000000001 1693 1552.0000000000002 C 1697.406 1544.7930000000001 1704.615 1539.3120000000001 1710.916 1533.8410000000001 C 1714.528 1530.65 1718.008 1527.3210000000001 1721.5 1524.0000000000002 C 1726.315 1519.4220000000003 1731.166 1514.9210000000003 1736.207 1510.5920000000003 C 1738.047 1508.9580000000003 1739.775 1507.2540000000004 1741.5 1505.5000000000002 C 1743.814184956085 1503.1467541949278 1746.2252696945902 1500.8908035927732 1748.727 1498.7380000000003 C 1752.861 1495.1430000000003 1756.883 1491.4400000000003 1760.875 1487.6880000000003 L 1762.982 1485.7110000000002 C 1767.7 1481.2690000000002 1772.296 1476.7330000000002 1776.848 1472.1210000000003 C 1779.4199999999998 1469.5870000000002 1782.127 1467.2550000000003 1784.8709999999999 1464.9100000000003 C 1788.435 1461.7130000000004 1791.7499999999998 1458.2680000000003 1795.0939999999998 1454.8440000000003 C 1797.9209999999998 1452.0130000000004 1800.9289999999999 1449.4130000000002 1803.9519999999998 1446.7940000000003 C 1807.1859999999997 1443.9610000000002 1810.3109999999997 1441.0140000000004 1813.4379999999999 1438.0620000000004 L 1815.4899999999998 1436.1310000000003 L 1819.7889999999998 1432.0820000000003 C 1822.0347639301335 1429.9682429387758 1824.2834327217702 1427.8575742775472 1826.534999999999 1425.7500000000005 L 1830.9999999999998 1421.5620000000001 L 1833.0639999999999 1419.631 C 1836.437056172387 1416.4723624027445 1839.749656695156 1413.249778198529 1843 1409.9650000000001 C 1845.5024653310043 1407.432570937528 1848.1086967452356 1405.0048256736568 1850.8119999999997 1402.688 C 1856.1579999999997 1398.084 1861.0509999999997 1393.0200000000002 1865.9999999999998 1388 C 1871.6099999999997 1382.31 1877.2159999999997 1376.683 1883.2929999999997 1371.484 C 1885.6479999999997 1369.436 1887.8229999999996 1367.235 1889.9999999999998 1365 C 1892.8759999999997 1362.089 1895.7589999999998 1359.276 1898.8749999999998 1356.625 C 1902.9959999999999 1353.105 1906.7589999999998 1349.269 1910.5639999999999 1345.416 C 1913.9969999999998 1341.9569999999999 1917.5459999999998 1338.701 1921.2379999999998 1335.52 C 1924.0279999999998 1333.113 1926.58 1330.792 1928.9999999999998 1328 C 1928.8229999999999 1324.086 1926.4879999999998 1322.128 1923.8089999999997 1319.48 L 1921.1929999999998 1316.881 L 1918.4379999999996 1314.188 L 1915.7639999999997 1311.529 C 1911.2699999999998 1307.088 1906.7039999999997 1302.789 1901.9139999999998 1298.669 C 1897.8289999999997 1295.1070000000002 1893.9349999999997 1291.333 1889.9999999999998 1287.605 C 1886.0412612439034 1283.8742604948923 1882.0060715052991 1280.225486100173 1877.8969999999995 1276.6609999999998 C 1875.0889999999997 1274.203 1872.3559999999998 1271.6680000000001 1869.6249999999998 1269.125 C 1864.9575956244812 1264.7997729852336 1860.2544341906778 1260.5132925204755 1855.5159999999996 1256.266 C 1847.897 1249.404 1840.377 1242.432 1832.8469999999998 1235.472 C 1829.3259999999998 1232.219 1825.7909999999997 1228.982 1822.2499999999998 1225.75 C 1817.2469999999998 1221.172 1812.3059999999998 1216.531 1807.3749999999998 1211.875 C 1802.1949999999997 1206.985 1796.9809999999998 1202.147 1791.6599999999999 1197.41 C 1787.3429999999998 1193.499 1783.1139999999998 1189.4930000000002 1778.8829999999998 1185.49 C 1774.9460335532553 1181.7822005939622 1770.933525151442 1178.155439780092 1766.8479999999995 1174.612 C 1764.3639999999998 1172.4450000000002 1761.9309999999998 1170.226 1759.4999999999998 1168 C 1754.0365846634618 1163.0113914746564 1748.4864038842418 1158.1186444109953 1742.8519999999999 1153.324 C 1710.896 1126.161 1710.896 1126.161 1709.6639999999998 1116.316 C 1709.5789999999997 1110.3210000000001 1709.8839999999998 1106.703 1713.9999999999998 1102 L 1715.3119999999997 1100.125 C 1718.2329999999997 1098.178 1720.5919999999996 1098.602 1723.9999999999998 1099 Z" stroke-linecap="round" />
</g>
		<g transform="matrix(-0.14168509533335535 0 0 0.14168509533335533 -37.86757883171936 10.938128884755312)"  >
<path style="stroke: rgb(68,86,52); stroke-width: 1; stroke-dasharray: none; stroke-linecap: butt; stroke-dashoffset: 0; stroke-linejoin: miter; stroke-miterlimit: 4; fill: rgb(0,0,0); fill-rule: nonzero; opacity: 1;"  paint-order="stroke"  transform=" translate(-1288.379073143281, -1048.055962280309)" d="M 1334 1024 L 1337.117 1025.52 C 1355.262 1034.81 1371.722 1047.445 1381 1066 C 1381.518 1070.799 1381.712 1074.734 1379.312 1079 C 1375.741 1082.089 1373.5179999999998 1083.079 1368.7579999999998 1082.832 C 1364.4159999999997 1081.871 1361.6179999999997 1079.99 1358.1879999999999 1077.3120000000001 Q 1356.3429999999998 1075.938 1354.492 1074.5700000000002 L 1352.687 1073.228 C 1348.962 1070.516 1345.0449999999998 1068.1960000000001 1341 1066 L 1338.75 1064.773 C 1311.861 1051.415 1278.597 1048.433 1249.908 1057.7649999999999 C 1235.655 1062.774 1222.4509999999998 1070.589 1210.559 1079.8359999999998 C 1207.3319999999999 1082.2459999999999 1204.998 1082.5489999999998 1201 1081.9999999999998 C 1197.823 1079.3749999999998 1196.395 1077.7269999999999 1195.48 1073.7269999999999 C 1194.76 1063.108 1202.0330000000001 1055.455 1208.555 1047.828 C 1221.0510000000002 1033.732 1236.5320000000002 1025.304 1254 1019 L 1256.641 1018.035 C 1281.423 1009.788 1310.767 1012.4499999999999 1334 1024 Z" stroke-linecap="round" />
</g>
		<g transform="matrix(-0.14168509533335535 0 0 0.14168509533335533 38.2749770027191 10.963563253927713)"  >
<path style="stroke: rgb(68,86,52); stroke-width: 1; stroke-dasharray: none; stroke-linecap: butt; stroke-dashoffset: 0; stroke-linejoin: miter; stroke-miterlimit: 4; fill: rgb(0,0,0); fill-rule: nonzero; opacity: 1;"  paint-order="stroke"  transform=" translate(-750.9721168555292, -1048.2354756519342)" d="M 822 1042 C 840.891 1058.642 840.891 1058.642 843.188 1070.75 C 843.3629999999999 1074.054 842.847 1075.828 840.812 1078.438 C 836.611 1082.266 836.611 1082.266 834 1083 C 830.093 1082.528 827.638 1081.346 824.445 1079.086 L 821.855 1077.289 L 819.125 1075.375 C 810.678 1069.6 802.486 1064.842 793 1061 L 790.375 1059.84 C 762.253 1048.283 730.5409999999999 1051.5939999999998 702.812 1062.25 C 694.582 1065.836 687.224 1071.061 679.879 1076.172 L 677 1078.125 L 674.5 1079.883 C 671.189 1081.362 669.439 1081.049 666 1080 C 662.891 1077.839 660.822 1075.312 659 1072 C 657.821 1065.409 660.593 1059.901 664.141 1054.504 C 667.462 1050.031 671.0949999999999 1045.9689999999998 675 1042 L 677.309 1039.652 C 683.8149999999999 1033.424 691.049 1029.0800000000002 699 1025 L 702.293 1023.309 C 741.906 1004.057 788.971 1014.523 822 1042 Z" stroke-linecap="round" />
</g>
</g>
</g>
</svg>